# Blender 4.3.0
# www.blender.org
mtllib trashsingle2.mtl
o Circle
v 0.000145 -0.005173 -0.866093
v -0.430972 -0.005106 -0.750969
v -0.755649 -0.016132 -0.427996
v -0.875272 -0.022053 0.011924
v -0.755649 -0.016132 0.449974
v -0.430486 -0.004854 0.769552
v 0.010136 0.000000 0.886411
v 0.448603 -0.000268 0.768963
v 0.760733 -0.005047 0.450778
v 0.863585 -0.012697 0.016873
v 0.738594 -0.016511 -0.419579
v 0.424369 -0.012816 -0.743392
v -0.003814 0.117226 -0.963622
v -0.481935 0.115876 -0.835952
v -0.843943 0.100477 -0.476199
v -0.977565 0.092329 0.013518
v -0.843943 0.100477 0.500662
v -0.481037 0.116341 0.855712
v 0.010126 0.124444 0.985306
v 0.497569 0.123957 0.854770
v 0.842504 0.117422 0.501554
v 0.953898 0.107335 0.019823
v 0.813344 0.102323 -0.465279
v 0.465165 0.107178 -0.826059
v -0.019589 0.294426 -0.969167
v -0.496472 0.288708 -0.841943
v -0.860640 0.267421 -0.478432
v -0.996900 0.255835 0.017375
v -0.860629 0.267427 0.509524
v -0.490852 0.291618 0.867322
v 0.008738 0.309094 0.997013
v 0.497679 0.309064 0.866253
v 0.837263 0.297654 0.512212
v 0.941871 0.283283 0.027775
v 0.796349 0.276469 -0.461679
v 0.447476 0.283068 -0.827681
v -0.046887 0.462793 -0.898381
v -0.485621 0.452338 -0.781520
v -0.822823 0.426871 -0.441576
v -0.947854 0.414303 0.022848
v -0.818350 0.429188 0.483927
v -0.469815 0.460522 0.818727
v -0.002787 0.485628 0.940537
v 0.452240 0.490789 0.818771
v 0.759998 0.476626 0.490193
v 0.848727 0.458506 0.038858
v 0.708200 0.449805 -0.419036
v 0.383991 0.455450 -0.763442
v -0.097716 0.683068 -0.727361
v -0.457826 0.666427 -0.631377
v -0.731387 0.639546 -0.349598
v -0.828884 0.628555 0.036363
v -0.718022 0.646466 0.420615
v -0.427556 0.682100 0.700221
v -0.042124 0.711853 0.803139
v 0.330432 0.718575 0.703707
v 0.580806 0.709530 0.431118
v 0.643637 0.690828 0.057675
v 0.520277 0.678188 -0.322876
v 0.252271 0.678104 -0.611423
v -0.162897 0.897427 -0.436964
v -0.397503 0.888185 -0.374623
v -0.568073 0.872744 -0.192471
v -0.626312 0.865919 0.059319
v -0.555955 0.879019 0.312589
v -0.365073 0.904978 0.496233
v -0.115043 0.922205 0.565035
v 0.122748 0.930282 0.501743
v 0.287461 0.929834 0.322258
v 0.328364 0.919341 0.076854
v 0.242859 0.906739 -0.171631
v 0.068108 0.901989 -0.361476
v -0.196142 1.041675 -0.232232
v -0.340070 1.034734 -0.194039
v -0.442302 1.029915 -0.082111
v -0.482956 1.025973 0.076077
v -0.439602 1.031313 0.234100
v -0.321252 1.044478 0.348792
v -0.159394 1.060703 0.389411
v -0.013579 1.067084 0.350647
v 0.085438 1.064033 0.240140
v 0.112117 1.055846 0.087007
v 0.063178 1.052506 -0.069345
v -0.048737 1.048879 -0.186565
v -0.196142 1.041675 -0.232232
v -0.340070 1.034734 -0.194039
v -0.442302 1.029915 -0.082111
v -0.482956 1.025973 0.076077
v -0.439602 1.031313 0.234100
v -0.321252 1.044478 0.348792
v -0.159394 1.060703 0.389411
v -0.013579 1.067084 0.350647
v 0.085438 1.064033 0.240140
v 0.112117 1.055846 0.087007
v 0.063178 1.052506 -0.069345
v -0.048737 1.048879 -0.186565
v -0.202328 1.144564 -0.116832
v -0.294570 1.140440 -0.092263
v -0.367616 1.133475 -0.017801
v -0.395616 1.130202 0.084571
v -0.367880 1.133024 0.186183
v -0.291153 1.142516 0.259888
v -0.186574 1.153892 0.285901
v -0.084679 1.158962 0.258331
v -0.023482 1.151307 0.188166
v -0.006757 1.145420 0.089752
v -0.038042 1.143477 -0.010843
v -0.108697 1.145380 -0.086905
v -0.218352 1.184240 -0.008737
v -0.263905 1.188149 0.003978
v -0.297650 1.191753 0.038963
v -0.309345 1.192877 0.086323
v -0.299379 1.197931 0.134697
v -0.267085 1.205232 0.170504
v -0.213157 1.207516 0.182677
v -0.168477 1.194230 0.169300
v -0.137938 1.187738 0.134162
v -0.125860 1.179064 0.086079
v -0.138645 1.180123 0.038770
v -0.172782 1.182524 0.004196
v -0.223964 1.217898 0.043383
v -0.246405 1.225736 0.050145
v -0.262772 1.231193 0.066748
v -0.268464 1.232542 0.088664
v -0.263781 1.232292 0.110602
v -0.249596 1.234247 0.126977
v -0.221654 1.230105 0.131504
v -0.199866 1.217144 0.124288
v -0.185584 1.211969 0.107756
v -0.179980 1.206930 0.085609
v -0.186373 1.209906 0.064286
v -0.202378 1.212628 0.048710
v -0.236304 1.242201 0.043837
v -0.255649 1.244016 0.049653
v -0.273084 1.243944 0.065912
v -0.278848 1.244103 0.087645
v -0.274180 1.243940 0.109531
v -0.259757 1.246037 0.126020
v -0.236010 1.249395 0.131559
v -0.211730 1.245416 0.124911
v -0.196145 1.235554 0.107941
v -0.190253 1.232971 0.085661
v -0.196521 1.235612 0.064286
v -0.213161 1.240110 0.049023
v -0.240505 1.229701 -0.047735
v -0.303208 1.231942 -0.030640
v -0.350723 1.229661 0.015882
v -0.367788 1.229647 0.079480
v -0.361779 1.237453 0.147500
v -0.324874 1.247908 0.198543
v -0.257818 1.262131 0.216516
v -0.191744 1.258949 0.198180
v -0.140697 1.240492 0.147758
v -0.113288 1.229721 0.079431
v -0.130320 1.229725 0.015839
v -0.176884 1.229717 -0.030707
v -0.241526 1.255736 -0.047351
v -0.305149 1.255719 -0.030301
v -0.351731 1.255703 0.016260
v -0.368791 1.255692 0.079857
v -0.362781 1.263498 0.147877
v -0.324403 1.270083 0.197941
v -0.258470 1.285082 0.216347
v -0.191339 1.282014 0.197711
v -0.142695 1.264315 0.148124
v -0.114317 1.255752 0.079817
v -0.131349 1.255756 0.016225
v -0.177911 1.255750 -0.030322
v -0.245900 1.290952 0.036844
v -0.268209 1.290952 0.042822
v -0.284540 1.290952 0.059153
v -0.290518 1.290951 0.081462
v -0.284541 1.290951 0.103770
v -0.269910 1.292108 0.120770
v -0.247829 1.294658 0.127191
v -0.224566 1.294025 0.120843
v -0.207260 1.290952 0.103770
v -0.201282 1.290953 0.081461
v -0.207260 1.290953 0.059153
v -0.223591 1.290952 0.042822
v -0.246194 1.301451 0.064616
v -0.254672 1.301451 0.066888
v -0.260878 1.301451 0.073094
v -0.263149 1.301451 0.081571
v -0.260769 1.301717 0.090054
v -0.254672 1.301451 0.096255
v -0.246085 1.301717 0.098531
v -0.237607 1.301717 0.096260
v -0.231510 1.301451 0.090049
v -0.229239 1.301451 0.081571
v -0.231510 1.301451 0.073094
v -0.237716 1.301451 0.066888
vn 0.0033 -1.0000 0.0042
vn -0.7013 -0.0816 -0.7082
vn -0.7303 -0.6501 0.2098
vn 0.5791 -0.5852 -0.5676
vn -0.2023 -0.6164 -0.7610
vn 0.5622 -0.6082 0.5604
vn -0.5287 -0.6337 0.5647
vn 0.2120 -0.6036 -0.7686
vn -0.5355 -0.6295 -0.5630
vn 0.7793 -0.5959 0.1939
vn -0.1935 -0.6154 0.7641
vn -0.7331 -0.6471 -0.2095
vn 0.7836 -0.5809 -0.2202
vn 0.2047 -0.6093 0.7661
vn 0.2754 0.4167 -0.8663
vn 0.9755 0.0359 0.2172
vn -0.2509 -0.0704 0.9655
vn -0.9588 -0.1032 -0.2646
vn 0.9555 0.0885 -0.2815
vn 0.2580 -0.0596 0.9643
vn -0.9571 -0.1146 0.2661
vn 0.7203 0.0753 -0.6896
vn -0.2571 -0.0541 -0.9649
vn 0.7178 -0.0321 0.6955
vn -0.6914 -0.0964 0.7160
vn 0.2858 0.0076 -0.9582
vn -0.6393 0.4623 0.6145
vn -0.6849 0.3027 -0.6628
vn 0.8863 0.4316 0.1681
vn -0.2530 0.2879 0.9236
vn -0.9265 0.2857 -0.2449
vn 0.8393 0.4768 -0.2612
vn 0.2445 0.3059 0.9201
vn -0.9267 0.2800 0.2506
vn 0.6450 0.4693 -0.6030
vn -0.2474 0.3455 -0.9052
vn 0.6848 0.3555 0.6361
vn -0.6771 0.2821 0.6796
vn -0.1963 0.7659 -0.6122
vn 0.2453 0.6352 -0.7323
vn -0.6356 0.5076 -0.5817
vn 0.7614 0.6386 0.1114
vn -0.2523 0.4814 0.8394
vn -0.8552 0.4735 -0.2107
vn 0.7082 0.6640 -0.2398
vn 0.2116 0.5313 0.8203
vn -0.8577 0.4619 0.2259
vn 0.5473 0.6664 -0.5062
vn -0.2294 0.5708 -0.7884
vn 0.6006 0.5945 0.5346
vn 0.4164 0.8111 -0.4109
vn 0.4476 0.8027 0.3941
vn -0.5759 0.6359 0.5138
vn 0.1868 0.8034 -0.5654
vn -0.5511 0.6933 -0.4643
vn 0.5867 0.8076 0.0602
vn -0.2357 0.6913 0.6830
vn -0.7472 0.6439 -0.1645
vn 0.5563 0.8022 -0.2169
vn 0.1503 0.7596 0.6327
vn -0.7598 0.6231 0.1857
vn 0.4327 0.8037 -0.4085
vn -0.0000 1.0000 -0.0000
vn -0.1888 0.7895 -0.5840
vn 0.4143 0.8329 0.3668
vn -0.5528 0.6783 0.4841
vn 0.1547 0.8126 -0.5620
vn -0.5235 0.7326 -0.4351
vn 0.5364 0.8424 0.0515
vn -0.2287 0.7377 0.6352
vn -0.7214 0.6747 -0.1563
vn 0.5280 0.8234 -0.2078
vn 0.1288 0.7923 0.5964
vn -0.7397 0.6497 0.1754
vn -0.7595 0.6227 0.1884
vn 0.1480 0.9273 0.3438
vn 0.4609 0.7694 -0.4422
vn -0.2087 0.7239 -0.6576
vn 0.4814 0.7898 0.3801
vn -0.5699 0.6419 0.5130
vn 0.1757 0.7483 -0.6397
vn -0.5486 0.6899 -0.4723
vn 0.6040 0.7947 0.0598
vn -0.2421 0.6900 0.6821
vn -0.7447 0.6432 -0.1784
vn 0.5877 0.7841 -0.1996
vn 0.1374 0.7534 0.6431
vn 0.4199 0.8753 0.2399
vn -0.6103 0.7842 0.1122
vn 0.2518 0.9465 -0.2017
vn -0.1055 0.9170 -0.3846
vn 0.2695 0.9571 0.1062
vn -0.4996 0.7795 0.3779
vn 0.1049 0.9413 -0.3208
vn -0.3802 0.8584 -0.3446
vn 0.2955 0.9546 -0.0368
vn -0.1949 0.8384 0.5090
vn -0.5727 0.8077 -0.1402
vn 0.2861 0.9539 -0.0910
vn 0.9069 0.3581 -0.2218
vn -0.6790 0.7284 0.0917
vn 0.3943 0.8666 -0.3057
vn -0.0273 0.8109 -0.5845
vn 0.4050 0.9024 0.1475
vn -0.5234 0.7870 0.3266
vn 0.2190 0.8492 -0.4805
vn -0.3927 0.7618 -0.5153
vn 0.4665 0.8828 -0.0549
vn -0.0762 0.8786 0.4715
vn -0.6706 0.7161 -0.1939
vn 0.4757 0.8758 -0.0814
vn 0.1552 -0.9869 0.0432
vn 0.3423 0.1755 0.9230
vn -0.7430 -0.6517 0.1524
vn 0.6916 0.2761 -0.6674
vn -0.3186 -0.1623 -0.9339
vn 0.7736 0.3261 0.5433
vn -0.6241 -0.4952 0.6044
vn 0.2464 0.1242 -0.9612
vn -0.6604 -0.4422 -0.6069
vn 0.9089 0.3808 0.1699
vn -0.1915 -0.1228 0.9738
vn -0.7435 -0.6461 -0.1728
vn -0.9653 -0.0335 -0.2590
vn -0.0684 -0.9976 -0.0123
vn -0.0330 -0.9860 0.1633
vn 0.1290 -0.9893 0.0688
vn -0.1088 -0.9933 0.0391
vn -0.0087 -0.9895 0.1441
vn -0.1482 -0.9555 0.2550
vn 0.1051 -0.9890 0.1039
vn -0.0550 -0.9910 0.1221
vn 0.1188 -0.9892 0.0859
vn -0.0223 -0.9902 0.1377
vn 0.1446 -0.9747 0.1702
vn -0.2211 0.9703 0.0978
vn 0.9651 0.0420 -0.2585
vn 0.2681 0.0148 0.9633
vn -0.9949 -0.0396 0.0924
vn 0.7065 0.0384 -0.7067
vn -0.2610 -0.0015 -0.9653
vn 0.7126 0.0258 0.7011
vn -0.8016 -0.0060 0.5979
vn 0.2585 0.0244 -0.9657
vn -0.7025 -0.0314 -0.7110
vn 0.9271 0.0507 0.3714
vn -0.2670 0.0154 0.9636
vn -0.1573 0.9567 0.2448
vn -0.4064 0.9072 -0.1089
vn 0.3717 0.9230 -0.0995
vn 0.0734 0.9902 0.1188
vn -0.3787 0.9250 -0.0297
vn 0.2731 0.9223 -0.2733
vn -0.1043 0.9156 -0.3884
vn 0.3310 0.9430 0.0336
vn -0.2662 0.9587 0.0998
vn 0.1014 0.9197 -0.3793
vn -0.2917 0.9110 -0.2916
vn 0.3651 0.9296 0.0506
vn 0.0010 1.0000 -0.0062
vn -0.3562 0.9295 -0.0954
vn 0.3497 0.9322 -0.0937
vn 0.0868 0.9646 0.2488
vn -0.3618 0.9279 0.0902
vn 0.2562 0.9321 -0.2562
vn -0.0946 0.9309 -0.3529
vn 0.2944 0.9421 0.1608
vn -0.2765 0.9376 0.2110
vn 0.0941 0.9316 -0.3512
vn -0.2597 0.9301 -0.2597
vn 0.3503 0.9319 0.0939
vt 0.000000 0.000000
s 0
usemtl Material.001
f 2/1/1 1/1/1 12/1/1 11/1/1 10/1/1 9/1/1 8/1/1 7/1/1 6/1/1 5/1/1 4/1/1 3/1/1
f 14/1/2 15/1/2 27/1/2 26/1/2
f 4/1/3 5/1/3 17/1/3 16/1/3
f 11/1/4 12/1/4 24/1/4 23/1/4
f 1/1/5 2/1/5 14/1/5 13/1/5
f 8/1/6 9/1/6 21/1/6 20/1/6
f 5/1/7 6/1/7 18/1/7 17/1/7
f 12/1/8 1/1/8 13/1/8 24/1/8
f 2/1/9 3/1/9 15/1/9 14/1/9
f 9/1/10 10/1/10 22/1/10 21/1/10
f 6/1/11 7/1/11 19/1/11 18/1/11
f 3/1/12 4/1/12 16/1/12 15/1/12
f 10/1/13 11/1/13 23/1/13 22/1/13
f 7/1/14 8/1/14 20/1/14 19/1/14
f 36/1/15 25/1/15 37/1/15 48/1/15
f 21/1/16 22/1/16 34/1/16 33/1/16
f 18/1/17 19/1/17 31/1/17 30/1/17
f 15/1/18 16/1/18 28/1/18 27/1/18
f 22/1/19 23/1/19 35/1/19 34/1/19
f 19/1/20 20/1/20 32/1/20 31/1/20
f 16/1/21 17/1/21 29/1/21 28/1/21
f 23/1/22 24/1/22 36/1/22 35/1/22
f 13/1/23 14/1/23 26/1/23 25/1/23
f 20/1/24 21/1/24 33/1/24 32/1/24
f 17/1/25 18/1/25 30/1/25 29/1/25
f 24/1/26 13/1/26 25/1/26 36/1/26
f 41/1/27 42/1/27 54/1/27 53/1/27
f 26/1/28 27/1/28 39/1/28 38/1/28
f 33/1/29 34/1/29 46/1/29 45/1/29
f 30/1/30 31/1/30 43/1/30 42/1/30
f 27/1/31 28/1/31 40/1/31 39/1/31
f 34/1/32 35/1/32 47/1/32 46/1/32
f 31/1/33 32/1/33 44/1/33 43/1/33
f 28/1/34 29/1/34 41/1/34 40/1/34
f 35/1/35 36/1/35 48/1/35 47/1/35
f 25/1/36 26/1/36 38/1/36 37/1/36
f 32/1/37 33/1/37 45/1/37 44/1/37
f 29/1/38 30/1/38 42/1/38 41/1/38
f 49/1/39 50/1/39 62/1/39 61/1/39
f 48/1/40 37/1/40 49/1/40 60/1/40
f 38/1/41 39/1/41 51/1/41 50/1/41
f 45/1/42 46/1/42 58/1/42 57/1/42
f 42/1/43 43/1/43 55/1/43 54/1/43
f 39/1/44 40/1/44 52/1/44 51/1/44
f 46/1/45 47/1/45 59/1/45 58/1/45
f 43/1/46 44/1/46 56/1/46 55/1/46
f 40/1/47 41/1/47 53/1/47 52/1/47
f 47/1/48 48/1/48 60/1/48 59/1/48
f 37/1/49 38/1/49 50/1/49 49/1/49
f 44/1/50 45/1/50 57/1/50 56/1/50
f 71/1/51 72/1/51 84/1/51 83/1/51
f 56/1/52 57/1/52 69/1/52 68/1/52
f 53/1/53 54/1/53 66/1/53 65/1/53
f 60/1/54 49/1/54 61/1/54 72/1/54
f 50/1/55 51/1/55 63/1/55 62/1/55
f 57/1/56 58/1/56 70/1/56 69/1/56
f 54/1/57 55/1/57 67/1/57 66/1/57
f 51/1/58 52/1/58 64/1/58 63/1/58
f 58/1/59 59/1/59 71/1/59 70/1/59
f 55/1/60 56/1/60 68/1/60 67/1/60
f 52/1/61 53/1/61 65/1/61 64/1/61
f 59/1/62 60/1/62 72/1/62 71/1/62
f 76/1/63 77/1/63 89/1/63 88/1/63
f 61/1/64 62/1/64 74/1/64 73/1/64
f 68/1/65 69/1/65 81/1/65 80/1/65
f 65/1/66 66/1/66 78/1/66 77/1/66
f 72/1/67 61/1/67 73/1/67 84/1/67
f 62/1/68 63/1/68 75/1/68 74/1/68
f 69/1/69 70/1/69 82/1/69 81/1/69
f 66/1/70 67/1/70 79/1/70 78/1/70
f 63/1/71 64/1/71 76/1/71 75/1/71
f 70/1/72 71/1/72 83/1/72 82/1/72
f 67/1/73 68/1/73 80/1/73 79/1/73
f 64/1/74 65/1/74 77/1/74 76/1/74
f 88/1/75 89/1/75 101/1/75 100/1/75
f 83/1/63 84/1/63 96/1/63 95/1/63
f 73/1/63 74/1/63 86/1/63 85/1/63
f 80/1/63 81/1/63 93/1/63 92/1/63
f 77/1/63 78/1/63 90/1/63 89/1/63
f 84/1/63 73/1/63 85/1/63 96/1/63
f 74/1/63 75/1/63 87/1/63 86/1/63
f 81/1/63 82/1/63 94/1/63 93/1/63
f 78/1/63 79/1/63 91/1/63 90/1/63
f 75/1/63 76/1/63 88/1/63 87/1/63
f 82/1/63 83/1/63 95/1/63 94/1/63
f 79/1/63 80/1/63 92/1/63 91/1/63
f 103/1/76 104/1/76 116/1/76 115/1/76
f 95/1/77 96/1/77 108/1/77 107/1/77
f 85/1/78 86/1/78 98/1/78 97/1/78
f 92/1/79 93/1/79 105/1/79 104/1/79
f 89/1/80 90/1/80 102/1/80 101/1/80
f 96/1/81 85/1/81 97/1/81 108/1/81
f 86/1/82 87/1/82 99/1/82 98/1/82
f 93/1/83 94/1/83 106/1/83 105/1/83
f 90/1/84 91/1/84 103/1/84 102/1/84
f 87/1/85 88/1/85 100/1/85 99/1/85
f 94/1/86 95/1/86 107/1/86 106/1/86
f 91/1/87 92/1/87 104/1/87 103/1/87
f 115/1/88 116/1/88 128/1/88 127/1/88
f 100/1/89 101/1/89 113/1/89 112/1/89
f 107/1/90 108/1/90 120/1/90 119/1/90
f 97/1/91 98/1/91 110/1/91 109/1/91
f 104/1/92 105/1/92 117/1/92 116/1/92
f 101/1/93 102/1/93 114/1/93 113/1/93
f 108/1/94 97/1/94 109/1/94 120/1/94
f 98/1/95 99/1/95 111/1/95 110/1/95
f 105/1/96 106/1/96 118/1/96 117/1/96
f 102/1/97 103/1/97 115/1/97 114/1/97
f 99/1/98 100/1/98 112/1/98 111/1/98
f 106/1/99 107/1/99 119/1/99 118/1/99
f 130/1/100 131/1/100 143/1/100 142/1/100
f 112/1/101 113/1/101 125/1/101 124/1/101
f 119/1/102 120/1/102 132/1/102 131/1/102
f 109/1/103 110/1/103 122/1/103 121/1/103
f 116/1/104 117/1/104 129/1/104 128/1/104
f 113/1/105 114/1/105 126/1/105 125/1/105
f 120/1/106 109/1/106 121/1/106 132/1/106
f 110/1/107 111/1/107 123/1/107 122/1/107
f 117/1/108 118/1/108 130/1/108 129/1/108
f 114/1/109 115/1/109 127/1/109 126/1/109
f 111/1/110 112/1/110 124/1/110 123/1/110
f 118/1/111 119/1/111 131/1/111 130/1/111
f 135/1/112 136/1/112 148/1/112 147/1/112
f 127/1/113 128/1/113 140/1/113 139/1/113
f 124/1/114 125/1/114 137/1/114 136/1/114
f 131/1/115 132/1/115 144/1/115 143/1/115
f 121/1/116 122/1/116 134/1/116 133/1/116
f 128/1/117 129/1/117 141/1/117 140/1/117
f 125/1/118 126/1/118 138/1/118 137/1/118
f 132/1/119 121/1/119 133/1/119 144/1/119
f 122/1/120 123/1/120 135/1/120 134/1/120
f 129/1/121 130/1/121 142/1/121 141/1/121
f 126/1/122 127/1/122 139/1/122 138/1/122
f 123/1/123 124/1/123 136/1/123 135/1/123
f 147/1/124 148/1/124 160/1/124 159/1/124
f 142/1/125 143/1/125 155/1/125 154/1/125
f 139/1/126 140/1/126 152/1/126 151/1/126
f 136/1/127 137/1/127 149/1/127 148/1/127
f 143/1/128 144/1/128 156/1/128 155/1/128
f 133/1/129 134/1/129 146/1/129 145/1/129
f 140/1/130 141/1/130 153/1/130 152/1/130
f 137/1/131 138/1/131 150/1/131 149/1/131
f 144/1/132 133/1/132 145/1/132 156/1/132
f 134/1/133 135/1/133 147/1/133 146/1/133
f 141/1/134 142/1/134 154/1/134 153/1/134
f 138/1/135 139/1/135 151/1/135 150/1/135
f 162/1/136 163/1/136 175/1/136 174/1/136
f 154/1/137 155/1/137 167/1/137 166/1/137
f 151/1/138 152/1/138 164/1/138 163/1/138
f 148/1/139 149/1/139 161/1/139 160/1/139
f 155/1/140 156/1/140 168/1/140 167/1/140
f 145/1/141 146/1/141 158/1/141 157/1/141
f 152/1/142 153/1/142 165/1/142 164/1/142
f 149/1/143 150/1/143 162/1/143 161/1/143
f 156/1/144 145/1/144 157/1/144 168/1/144
f 146/1/145 147/1/145 159/1/145 158/1/145
f 153/1/146 154/1/146 166/1/146 165/1/146
f 150/1/147 151/1/147 163/1/147 162/1/147
f 174/1/148 175/1/148 187/1/148 186/1/148
f 159/1/149 160/1/149 172/1/149 171/1/149
f 166/1/150 167/1/150 179/1/150 178/1/150
f 163/1/151 164/1/151 176/1/151 175/1/151
f 160/1/152 161/1/152 173/1/152 172/1/152
f 167/1/153 168/1/153 180/1/153 179/1/153
f 157/1/154 158/1/154 170/1/154 169/1/154
f 164/1/155 165/1/155 177/1/155 176/1/155
f 161/1/156 162/1/156 174/1/156 173/1/156
f 168/1/157 157/1/157 169/1/157 180/1/157
f 158/1/158 159/1/158 171/1/158 170/1/158
f 165/1/159 166/1/159 178/1/159 177/1/159
f 182/1/160 183/1/160 184/1/160 185/1/160 186/1/160 187/1/160 188/1/160 189/1/160 190/1/160 191/1/160 192/1/160 181/1/160
f 171/1/161 172/1/161 184/1/161 183/1/161
f 178/1/162 179/1/162 191/1/162 190/1/162
f 175/1/163 176/1/163 188/1/163 187/1/163
f 172/1/164 173/1/164 185/1/164 184/1/164
f 179/1/165 180/1/165 192/1/165 191/1/165
f 169/1/166 170/1/166 182/1/166 181/1/166
f 176/1/167 177/1/167 189/1/167 188/1/167
f 173/1/168 174/1/168 186/1/168 185/1/168
f 180/1/169 169/1/169 181/1/169 192/1/169
f 170/1/170 171/1/170 183/1/170 182/1/170
f 177/1/171 178/1/171 190/1/171 189/1/171
